HIERARCHY
ROOT Hips
{
	OFFSET	0.00	0.00	0.00
	CHANNELS 6 Xposition Yposition Zposition Zrotation Xrotation Yrotation
	JOINT LeftUpLeg
	{
		OFFSET	 0.126116	-0.014019	-0.065224
		CHANNELS 3 Zrotation Xrotation Yrotation
		JOINT LeftLeg
		{
			OFFSET	 0.000000	 0.000000	 0.569914
			CHANNELS 3 Zrotation Xrotation Yrotation
			JOINT LeftFoot
			{
				OFFSET	 0.000000	 0.000000	 0.544423
				CHANNELS 3 Zrotation Xrotation Yrotation
				JOINT LeftToeBase
				{
					OFFSET	 0.000000	 0.000000	 0.207117
					CHANNELS 3 Zrotation Xrotation Yrotation
					End Site
					{
						OFFSET	 0.000000	 0.000000	 0.207117
					}
				}
			}
		}
	}
	JOINT RightUpLeg
	{
		OFFSET	-0.124023	-0.008373	-0.065224
		CHANNELS 3 Zrotation Xrotation Yrotation
		JOINT RightLeg
		{
			OFFSET	 0.000000	 0.000000	 0.570047
			CHANNELS 3 Zrotation Xrotation Yrotation
			JOINT RightFoot
			{
				OFFSET	 0.000000	 0.000000	 0.544354
				CHANNELS 3 Zrotation Xrotation Yrotation
				JOINT RightToeBase
				{
					OFFSET	 0.000000	 0.000000	 0.207540
					CHANNELS 3 Zrotation Xrotation Yrotation
					End Site
					{
						OFFSET	 0.000000	 0.000000	 0.207540
					}
				}
			}
		}
	}
	JOINT Spine
	{
		OFFSET	 0.000184	-0.007763	 0.117403
		CHANNELS 3 Zrotation Xrotation Yrotation
		JOINT Spine1
		{
			OFFSET	 0.000000	 0.000000	 0.137269
			CHANNELS 3 Zrotation Xrotation Yrotation
			JOINT Spine2
			{
				OFFSET	 0.000000	 0.000000	 0.156879
				CHANNELS 3 Zrotation Xrotation Yrotation
				JOINT LeftShoulder
				{
					OFFSET	 0.080501	-0.002496	 0.160144
					CHANNELS 3 Zrotation Xrotation Yrotation
					JOINT LeftArm
					{
						OFFSET	 0.000000	 0.000000	 0.164363
						CHANNELS 3 Zrotation Xrotation Yrotation
						JOINT LeftForeArm
						{
							OFFSET	 0.000000	 0.000000	 0.364576
							CHANNELS 3 Zrotation Xrotation Yrotation
							JOINT LeftHand
							{
								OFFSET	 0.000000	 0.000000	 0.360812
								CHANNELS 3 Zrotation Xrotation Yrotation
								JOINT LeftHandIndex1
								{
									OFFSET	 0.000000	 0.000000	 0.086006
									CHANNELS 3 Zrotation Xrotation Yrotation
									JOINT LeftHandIndex2
									{
										OFFSET	 0.000000	 0.000000	 0.047236
										CHANNELS 3 Zrotation Xrotation Yrotation
										JOINT LeftHandIndex3
										{
											OFFSET	-0.004284	-0.000551	 0.038166
											CHANNELS 3 Zrotation Xrotation Yrotation
											End Site
											{
												OFFSET	-0.004284	-0.000551	 0.038166
											}
										}
									}
								}
							}
						}
					}
				}
				JOINT Neck
				{
					OFFSET	 0.000000	 0.000000	 0.176489
					CHANNELS 3 Zrotation Xrotation Yrotation
					JOINT Head
					{
						OFFSET	 0.000000	-0.001747	 0.077940
						CHANNELS 3 Zrotation Xrotation Yrotation
						End Site
						{
							OFFSET	 0.000000	-0.001747	 0.077940
						}
					}
				}
				JOINT RightShoulder
				{
					OFFSET	-0.080363	 0.000306	 0.159706
					CHANNELS 3 Zrotation Xrotation Yrotation
					JOINT RightArm
					{
						OFFSET	 0.000000	 0.000000	 0.164196
						CHANNELS 3 Zrotation Xrotation Yrotation
						JOINT RightForeArm
						{
							OFFSET	 0.000000	 0.000000	 0.365611
							CHANNELS 3 Zrotation Xrotation Yrotation
							JOINT RightHand
							{
								OFFSET	 0.000000	 0.000000	 0.360648
								CHANNELS 3 Zrotation Xrotation Yrotation
								JOINT RightHandIndex1
								{
									OFFSET	 0.000000	 0.000000	 0.069977
									CHANNELS 3 Zrotation Xrotation Yrotation
									JOINT RightHandIndex2
									{
										OFFSET	 0.000000	 0.000000	 0.052305
										CHANNELS 3 Zrotation Xrotation Yrotation
										JOINT RightHandIndex3
										{
											OFFSET	 0.009002	-0.000782	 0.042196
											CHANNELS 3 Zrotation Xrotation Yrotation
											End Site
											{
												OFFSET	 0.009002	-0.000782	 0.042196
											}
										}
									}
								}
							}
						}
					}
				}
			}
		}
	}
}
MOTION
Frames:    13
Frame Time: 0.03333334
-11.022190	-23.621820	-0.529727	-57.999030	 0.614406	 0.556383	 2.054975	-33.550950	 172.329500	-6.307838	-68.650620	-6.919048	 177.241200	 86.683120	 179.822400	-2.323226	 37.595760	-0.212953	-0.355992	-35.171880	-177.393300	 1.853703	-73.415490	 4.350474	-178.060600	 85.327980	 179.640600	 2.403804	 22.068570	-0.131723	 2.382535	 14.256920	 0.926137	 4.387153	 7.625175	-2.146914	 5.422192	 4.857041	 0.129036	-139.998900	 89.559880	-128.421100	 49.669330	 61.164130	-77.676090	-13.169090	-2.244102	-20.142510	 0.770587	-2.216492	-5.362260	-3.812334	 37.924440	-2.927599	-2.450526	 36.184240	 0.754587	-1.378229	 35.397820	-2.634230	 1.532673	 2.568092	-3.147321	 1.962496	 7.942846	 2.509729	 93.929380	 85.935230	 171.524200	-54.137190	 70.419710	 73.388610	-6.399929	-12.389330	 21.229840	-27.221430	-3.208352	 9.543673	 6.437017	 35.671460	-0.771858	 2.830251	 35.756010	-7.813440	-2.350882	 35.473990	 5.254307
-11.019870	-23.622200	-0.520904	-58.694920	 1.731350	 0.473656	 2.276608	-34.044290	 172.417200	-5.595418	-67.309590	-5.967870	 176.804700	 87.179570	-179.525900	-2.334802	 36.333310	-0.181370	 0.032968	-35.553170	-177.538900	 1.608003	-71.529630	 4.335763	-177.550400	 85.693240	 179.279900	 2.405428	 20.987550	-0.153433	 2.366134	 14.306360	 0.827969	 4.420475	 7.452304	-2.128876	 5.546413	 4.684036	 0.140404	-131.550900	 89.488710	-136.855100	 48.340480	 61.196190	-76.832940	-13.149640	-2.328136	-19.558530	 1.126230	-2.230515	-5.359122	-3.812334	 37.924440	-2.927599	-2.450526	 36.184240	 0.754587	-1.378229	 35.397820	-2.634230	 1.667102	 2.396095	-3.114694	 2.067785	 7.794916	 2.884696	 94.086650	 85.978580	 171.276200	-54.078570	 70.646170	 73.277810	-6.535325	-12.305300	 20.818570	-27.498180	-3.210778	 9.538363	 6.437017	 35.671460	-0.771858	 2.830251	 35.756010	-7.813440	-2.350882	 35.473990	 5.254307
-11.017420	-23.622560	-0.512247	-59.296300	 2.877482	 0.324350	 2.473672	-34.625020	 172.616100	-4.977447	-66.081710	-5.141709	 176.131100	 87.688100	-178.629400	-2.343718	 35.274630	-0.155496	 0.406662	-36.073050	-177.543900	 1.385145	-69.844280	 4.325084	-177.028900	 86.069160	 178.893000	 2.406112	 20.408200	-0.164986	 2.313516	 14.294770	 0.776002	 4.422932	 7.296140	-2.086272	 5.664355	 4.536523	 0.150709	-126.315200	 89.430420	-142.106000	 47.001070	 61.133470	-75.945070	-13.128060	-2.373169	-18.987360	 1.381038	-2.242420	-5.356431	-3.812334	 37.924440	-2.927599	-2.450526	 36.184240	 0.754587	-1.378229	 35.397820	-2.634230	 1.786756	 2.254620	-3.059714	 2.181889	 7.658556	 3.297217	 94.233180	 86.014500	 171.041600	-54.021030	 70.923040	 73.039990	-6.535986	-12.158480	 20.427970	-27.623150	-3.213095	 9.534415	 6.437017	 35.671460	-0.771858	 2.830251	 35.756010	-7.813440	-2.350882	 35.473990	 5.254307
-11.014990	-23.623040	-0.504359	-59.891690	 3.915067	 0.122904	 2.696394	-35.100610	 172.861500	-4.541908	-64.962010	-4.489353	 175.087500	 88.169440	-177.393600	-2.350926	 34.352170	-0.133388	 0.794844	-36.632820	-177.431700	 0.951046	-68.587520	 4.137624	-176.208000	 86.536770	 178.100800	 2.406448	 20.084790	-0.171421	 2.285537	 14.296760	 0.778410	 4.438207	 7.172860	-2.026877	 5.773489	 4.404879	 0.160273	-122.985500	 89.383250	-145.457500	 45.791500	 61.029290	-75.234350	-13.256620	-2.360561	-18.495860	 1.452067	-2.251938	-5.355074	-3.812334	 37.924440	-2.927599	-2.450526	 36.184240	 0.754587	-1.378229	 35.397820	-2.634230	 1.899973	 2.139393	-2.990841	 2.287915	 7.520534	 3.693727	 94.335110	 86.040020	 170.881500	-54.022660	 71.227460	 72.790530	-6.471756	-11.981010	 20.048690	-27.672340	-3.215544	 9.530438	 6.437017	 35.671460	-0.771858	 2.830251	 35.756010	-7.813440	-2.350882	 35.473990	 5.254307
-11.012810	-23.623820	-0.497011	-60.533550	 4.826018	-0.103577	 2.999894	-35.416290	 173.150300	-4.314398	-63.889780	-3.987000	 173.314000	 88.634990	-175.467800	-2.357144	 33.497490	-0.113247	 1.211606	-37.211300	-177.256300	 0.283747	-67.642890	 3.765235	-174.908100	 87.173740	 176.711200	 2.406734	 19.766740	-0.177727	 2.306933	 14.384770	 0.828085	 4.497457	 7.096300	-1.964048	 5.883192	 4.282331	 0.169633	-120.779100	 89.345690	-147.674100	 44.669250	 60.912730	-74.708790	-13.453150	-2.334096	-18.029090	 1.476864	-2.261451	-5.353941	-3.812334	 37.924440	-2.927599	-2.450526	 36.184240	 0.754587	-1.378229	 35.397820	-2.634230	 2.023015	 2.034479	-2.924232	 2.381776	 7.388565	 4.056505	 94.410320	 86.060460	 170.767100	-53.960090	 71.546110	 72.463200	-6.493821	-11.816400	 19.617430	-27.816600	-3.218632	 9.524896	 6.437017	 35.671460	-0.771858	 2.830251	 35.756010	-7.813440	-2.350882	 35.473990	 5.254307
-11.010890	-23.624690	-0.490077	-61.209990	 5.612193	-0.344927	 3.393684	-35.576930	 173.475300	-4.232364	-62.819290	-3.564303	 169.759800	 89.090220	-171.780600	-2.362164	 32.761390	-0.096145	 1.603072	-37.769890	-177.041300	-0.547673	-66.745700	 3.223590	-173.215800	 87.767170	 174.839700	 2.406987	 19.443140	-0.184131	 2.359477	 14.598720	 0.927657	 4.581449	 7.080991	-1.897821	 5.991293	 4.174300	 0.178421	-119.344200	 89.317000	-149.108400	 43.594130	 60.821110	-74.377920	-13.563370	-2.357625	-17.533510	 1.674725	-2.273097	-5.351226	-3.812334	 37.924440	-2.927599	-2.450526	 36.184240	 0.754587	-1.378229	 35.397820	-2.634230	 2.146786	 1.927420	-2.874923	 2.466010	 7.293615	 4.355020	 94.472660	 86.079990	 170.677500	-53.832430	 71.889990	 72.079880	-6.589942	-11.642610	 19.097680	-28.057790	-3.222889	 9.515931	 6.437017	 35.671460	-0.771858	 2.830251	 35.756010	-7.813440	-2.350882	 35.473990	 5.254307
-11.009520	-23.625640	-0.484460	-61.753180	 6.248799	-0.536822	 3.778085	-35.625350	 173.752300	-4.180937	-61.872380	-3.191831	 162.166100	 89.466970	-164.055300	-2.365495	 32.247120	-0.084320	 1.835369	-38.164050	-176.756100	-1.298745	-65.921090	 2.644880	-171.483800	 88.208780	 172.891600	 2.407110	 19.254960	-0.187850	 2.384606	 14.824900	 1.018914	 4.633011	 7.104076	-1.836395	 6.071571	 4.095133	 0.185020	-118.548300	 89.302270	-149.920700	 42.693070	 60.809350	-74.299960	-13.559020	-2.440262	-17.036870	 2.083640	-2.287097	-5.346474	-3.812334	 37.924440	-2.927599	-2.450526	 36.184240	 0.754587	-1.378229	 35.397820	-2.634230	 2.233439	 1.863098	-2.834542	 2.534520	 7.224992	 4.508673	 94.528760	 86.100070	 170.602700	-53.611310	 72.243670	 71.611690	-6.729144	-11.463720	 18.534980	-28.356610	-3.228063	 9.504189	 6.437017	 35.671460	-0.771858	 2.830251	 35.756010	-7.813440	-2.350882	 35.473990	 5.254307
-11.008850	-23.626360	-0.479581	-62.089700	 6.788682	-0.643995	 4.091540	-35.690550	 173.940400	-4.054211	-61.047420	-2.812889	 141.201000	 89.740560	-142.934700	-2.367710	 31.891910	-0.076214	 1.891031	-38.274510	-176.678500	-1.888356	-65.102520	 2.108578	-169.649200	 88.537800	 170.844700	 2.407118	 19.251840	-0.187911	 2.344971	 14.992610	 1.034193	 4.619579	 7.149702	-1.804050	 6.114900	 4.047924	 0.188869	-118.177700	 89.302270	-150.332600	 41.962640	 60.899250	-74.446800	-13.602680	-2.529155	-16.528360	 2.541481	-2.301675	-5.340806	-3.812334	 37.924440	-2.927599	-2.450526	 36.184240	 0.754587	-1.378229	 35.397820	-2.634230	 2.265556	 1.869962	-2.777048	 2.593746	 7.160180	 4.502260	 94.591130	 86.123990	 170.522300	-53.263290	 72.622240	 70.998670	-6.883893	-11.268590	 17.932420	-28.688790	-3.233718	 9.490951	 6.437017	 35.671460	-0.771858	 2.830251	 35.756010	-7.813440	-2.350882	 35.473990	 5.254307
-11.008400	-23.626930	-0.474696	-62.234740	 7.359022	-0.675640	 4.323745	-35.862810	 174.028500	-3.822925	-60.222430	-2.400201	 73.020650	 89.832150	-74.568240	-2.369113	 31.661260	-0.070977	 1.770722	-38.314410	-176.594700	-2.275185	-64.194980	 1.631084	-167.155000	 88.824970	 168.154300	 2.407061	 19.333950	-0.186290	 2.234488	 15.061660	 0.964188	 4.537345	 7.204369	-1.817324	 6.123966	 4.022971	 0.190486	-118.137700	 89.318440	-150.455600	 41.314350	 61.034170	-74.738150	-13.729650	-2.592439	-15.935980	 2.965306	-2.316979	-5.334679	-3.812334	 37.924440	-2.927599	-2.450526	 36.184240	 0.754587	-1.378229	 35.397820	-2.634230	 2.238307	 1.929837	-2.706885	 2.654384	 7.100896	 4.397634	 94.675410	 86.150910	 170.405500	-52.664810	 73.110370	 70.048430	-7.053987	-11.015370	 17.190390	-29.097070	-3.240380	 9.474845	 6.437017	 35.671460	-0.771858	 2.830251	 35.756010	-7.813440	-2.350882	 35.473990	 5.254307
-11.007940	-23.626890	-0.470753	-62.173950	 7.824229	-0.674078	 4.432132	-36.075530	 174.081900	-3.571801	-59.552440	-2.069528	 33.894350	 89.713330	-35.282880	-2.369209	 31.646570	-0.070644	 1.522165	-38.467350	-176.586300	-2.338936	-63.475480	 1.360376	-164.194500	 89.039570	 165.079700	 2.406955	 19.487010	-0.183262	 2.089954	 15.104180	 0.895495	 4.422981	 7.246724	-1.888549	 6.106521	 4.030497	 0.189538	-119.317000	 89.359890	-149.358000	 40.921650	 61.142480	-75.151960	-13.942890	-2.620370	-15.584380	 3.196127	-2.328240	-5.330660	-3.812334	 37.924440	-2.927599	-2.450526	 36.184240	 0.754587	-1.378229	 35.397820	-2.634230	 2.174296	 2.000844	-2.699226	 2.698650	 7.075603	 4.281443	 94.659290	 86.121620	 170.383900	-51.885170	 73.635100	 68.889720	-7.164103	-10.798870	 16.541700	-29.496140	-3.246582	 9.459359	 6.437017	 35.671460	-0.771858	 2.830251	 35.756010	-7.813440	-2.350882	 35.473990	 5.254307
-11.008090	-23.626950	-0.466871	-62.009660	 8.251999	-0.688578	 4.471011	-36.207910	 174.145200	-3.306126	-58.924940	-1.784824	 20.905980	 89.555010	-22.151460	-2.368692	 31.732490	-0.072589	 1.231129	-38.564700	-176.572700	-2.194580	-62.800630	 1.250374	-160.081700	 89.230770	 160.926700	 2.406705	 19.801430	-0.177043	 1.917769	 15.139940	 0.886373	 4.282035	 7.270657	-2.001326	 6.067780	 4.036275	 0.188029	-123.393500	 89.446100	-145.364300	 40.796210	 61.202200	-75.852870	-14.209230	-2.637925	-15.464820	 3.306723	-2.334722	-5.328615	-3.812334	 37.924440	-2.927599	-2.450526	 36.184240	 0.754587	-1.378229	 35.397820	-2.634230	 2.078381	 2.033229	-2.793334	 2.730331	 7.082619	 4.182696	 94.544280	 86.033260	 170.451800	-50.776780	 74.302720	 67.330820	-7.193171	-10.591940	 15.897500	-29.944620	-3.252970	 9.441781	 6.437017	 35.671460	-0.771858	 2.830251	 35.756010	-7.813440	-2.350882	 35.473990	 5.254307
-11.008660	-23.627110	-0.464503	-61.863220	 8.495885	-0.695270	 4.458254	-36.304410	 174.152100	-3.109594	-58.575380	-1.608936	 16.919160	 89.455360	-18.070570	-2.368884	 31.700880	-0.071869	 1.057993	-38.523170	-176.587000	-1.921786	-62.406500	 1.356410	-158.484100	 89.299190	 159.393700	 2.406347	 20.193610	-0.169256	 1.805480	 15.146560	 0.898110	 4.185678	 7.267126	-2.085474	 6.034004	 4.026334	 0.187506	-128.438200	 89.517050	-140.369400	 40.895540	 61.199420	-76.408820	-14.336040	-2.654850	-15.540820	 3.339346	-2.333821	-5.328598	-3.812334	 37.924440	-2.927599	-2.450526	 36.184240	 0.754587	-1.378229	 35.397820	-2.634230	 2.007351	 2.029350	-2.883439	 2.744253	 7.094423	 4.084841	 94.434420	 85.952960	 170.527600	-49.872040	 74.805080	 66.104730	-7.148539	-10.469800	 15.506360	-30.243340	-3.256629	 9.429713	 6.437017	 35.671460	-0.771858	 2.830251	 35.756010	-7.813440	-2.350882	 35.473990	 5.254307
-11.009930	-23.627520	-0.461945	-61.652860	 8.741796	-0.682222	 4.417711	-36.268930	 174.125900	-2.854102	-58.221320	-1.406794	 14.117440	 89.348980	-15.155720	-2.370551	 31.421380	-0.065544	 0.890207	-38.421430	-176.651600	-1.490997	-62.004620	 1.609294	-156.995500	 89.344780	 158.052400	 2.405556	 20.894480	-0.155295	 1.676149	 15.127820	 0.898750	 4.070466	 7.245431	-2.180406	 5.987413	 4.001624	 0.187349	-137.787100	 89.602870	-131.070900	 41.216220	 61.136070	-77.093190	-14.380820	-2.682849	-15.793150	 3.343605	-2.326114	-5.329892	-3.812334	 37.924440	-2.927599	-2.450526	 36.184240	 0.754587	-1.378229	 35.397820	-2.634230	 1.921617	 2.007392	-2.968090	 2.756083	 7.103197	 3.916246	 94.300610	 85.852580	 170.620800	-48.811330	 75.344910	 64.635850	-7.129062	-10.345600	 15.100890	-30.574230	-3.259960	 9.417004	 6.437017	 35.671460	-0.771858	 2.830251	 35.756010	-7.813440	-2.350882	 35.473990	 5.254307
